# xmcd CD database file
#
# Track frame offsets:
#	150
#	14912
#	27488
#	44386
#	58020
#	77406
#	90669
#	110305
#	126244
#	146334
#	164484
#	183264
#	199102
#	219205
#	234277
#	257993
#
# Disc length: 3785 seconds
#
# Revision: 1
# Processed by: cddbd v1.5.1PL0 Copyright (c) Steve Scherf et al.
# Submitted via: CDex 1.51
#
DISCID=da0ec710
DTITLE=Fun Lovin' Criminals - Welcome To Poppy's
DYEAR=2003
DGENRE=Blues
TTITLE0=Too Hot
TTITLE1=Stray Bullet
TTITLE2=Living On The Streets
TTITLE3=Lost It All
TTITLE4=Friday Night
TTITLE5=You Got A Problem
TTITLE6=Running For Cover
TTITLE7=Take Me Back
TTITLE8=What Had Happened
TTITLE9=Got Our Love
TTITLE10=This Sick World
TTITLE11=Steak Knife
TTITLE12=Beautiful
TTITLE13=Baby
TTITLE14=You Just Can't Have It All
TTITLE15=DATA
EXTD=Submitted by Kev Sniper YEAR: 2003
EXTT0=
EXTT1=
EXTT2=
EXTT3=
EXTT4=
EXTT5=
EXTT6=
EXTT7=
EXTT8=
EXTT9=
EXTT10=
EXTT11=
EXTT12=
EXTT13=
EXTT14=
EXTT15=
PLAYORDER=
